<svg xmlns="http://www.w3.org/2000/svg" viewBox="0 0 1400 320" fill="none">
  <rect width="1400" height="320" fill="#1F2937"/>
  <rect width="1400" height="320" fill="url(#bannerGrad)" opacity="0.7"/>

  <!-- Industrial cityscape silhouette -->
  <!-- Buildings -->
  <rect x="0" y="160" width="100" height="160" fill="#111827" opacity="0.5"/>
  <rect x="110" y="120" width="80" height="200" fill="#111827" opacity="0.45"/>
  <rect x="200" y="180" width="120" height="140" fill="#111827" opacity="0.4"/>
  <rect x="340" y="140" width="90" height="180" fill="#111827" opacity="0.45"/>
  <rect x="450" y="190" width="110" height="130" fill="#111827" opacity="0.4"/>
  <rect x="580" y="150" width="70" height="170" fill="#111827" opacity="0.45"/>
  <rect x="670" y="170" width="130" height="150" fill="#111827" opacity="0.4"/>
  <rect x="820" y="130" width="100" height="190" fill="#111827" opacity="0.45"/>
  <rect x="940" y="180" width="80" height="140" fill="#111827" opacity="0.4"/>
  <rect x="1040" y="150" width="120" height="170" fill="#111827" opacity="0.45"/>
  <rect x="1180" y="170" width="90" height="150" fill="#111827" opacity="0.4"/>
  <rect x="1290" y="140" width="110" height="180" fill="#111827" opacity="0.45"/>

  <!-- Chimneys -->
  <rect x="140" y="90" width="15" height="30" fill="#111827" opacity="0.4"/>
  <rect x="370" y="100" width="12" height="40" fill="#111827" opacity="0.4"/>
  <rect x="860" y="95" width="15" height="35" fill="#111827" opacity="0.4"/>
  <rect x="1100" y="110" width="12" height="40" fill="#111827" opacity="0.4"/>

  <!-- Windows (safety lights) -->
  <rect x="20" y="200" width="15" height="12" rx="1" fill="#F04D41" opacity="0.3"/>
  <rect x="50" y="200" width="15" height="12" rx="1" fill="#F04D41" opacity="0.2"/>
  <rect x="20" y="230" width="15" height="12" rx="1" fill="#F9766D" opacity="0.2"/>
  <rect x="50" y="230" width="15" height="12" rx="1" fill="#F04D41" opacity="0.25"/>

  <rect x="125" y="160" width="12" height="10" rx="1" fill="#F9766D" opacity="0.25"/>
  <rect x="155" y="160" width="12" height="10" rx="1" fill="#F04D41" opacity="0.2"/>
  <rect x="125" y="185" width="12" height="10" rx="1" fill="#F04D41" opacity="0.2"/>
  <rect x="155" y="185" width="12" height="10" rx="1" fill="#F9766D" opacity="0.3"/>

  <rect x="220" y="210" width="18" height="14" rx="1" fill="#F04D41" opacity="0.2"/>
  <rect x="260" y="210" width="18" height="14" rx="1" fill="#F9766D" opacity="0.25"/>
  <rect x="220" y="240" width="18" height="14" rx="1" fill="#F9766D" opacity="0.2"/>
  <rect x="260" y="240" width="18" height="14" rx="1" fill="#F04D41" opacity="0.3"/>

  <rect x="690" y="200" width="15" height="12" rx="1" fill="#F04D41" opacity="0.25"/>
  <rect x="720" y="200" width="15" height="12" rx="1" fill="#F9766D" opacity="0.2"/>
  <rect x="750" y="200" width="15" height="12" rx="1" fill="#F04D41" opacity="0.2"/>
  <rect x="690" y="230" width="15" height="12" rx="1" fill="#F9766D" opacity="0.3"/>
  <rect x="720" y="230" width="15" height="12" rx="1" fill="#F04D41" opacity="0.2"/>

  <rect x="1060" y="190" width="14" height="11" rx="1" fill="#F04D41" opacity="0.25"/>
  <rect x="1090" y="190" width="14" height="11" rx="1" fill="#F9766D" opacity="0.2"/>
  <rect x="1120" y="190" width="14" height="11" rx="1" fill="#F04D41" opacity="0.2"/>
  <rect x="1060" y="215" width="14" height="11" rx="1" fill="#F9766D" opacity="0.2"/>
  <rect x="1090" y="215" width="14" height="11" rx="1" fill="#F04D41" opacity="0.3"/>

  <!-- Safety shield icons scattered -->
  <g transform="translate(500, 60)" opacity="0.15">
    <path d="M15 0 L30 8 L30 20 C30 32 15 40 15 40 C15 40 0 32 0 20 L0 8 Z" fill="#F04D41"/>
  </g>
  <g transform="translate(900, 50)" opacity="0.12">
    <path d="M15 0 L30 8 L30 20 C30 32 15 40 15 40 C15 40 0 32 0 20 L0 8 Z" fill="#F04D41"/>
  </g>

  <!-- Fire glow effect at bottom -->
  <ellipse cx="700" cy="340" rx="500" ry="40" fill="#F04D41" opacity="0.08"/>

  <defs>
    <linearGradient id="bannerGrad" x1="0" y1="0" x2="1400" y2="320">
      <stop offset="0%" stop-color="#450D09" stop-opacity="0.6"/>
      <stop offset="50%" stop-color="#1F2937" stop-opacity="0.2"/>
      <stop offset="100%" stop-color="#450D09" stop-opacity="0.5"/>
    </linearGradient>
  </defs>
</svg>
